<svg xmlns="http://www.w3.org/2000/svg" width="57.429" height="57.282" viewBox="0 0 57.429 57.282">
  <g id="Group_48" data-name="Group 48" transform="translate(-1436.616 -378.616)">
    <path id="Path_13" data-name="Path 13" d="M1474.191,435.9c-.3-.169-.619-.32-.909-.51a2.51,2.51,0,0,1-1.183-1.822c-.061-.532-.3-.563-.717-.561-3.154.012-6.31-.058-9.463.028a3.071,3.071,0,0,1-3.322-3.325c.075-2.593.019-5.189.02-7.784,0-.9.147-1.1.979-1.384.8.255.941.445.941,1.284q0,3.981,0,7.962a1.177,1.177,0,0,0,1.7,1.255c.378-.07.175-.51.176-.775.016-2.747.01-5.495.01-8.242a2.593,2.593,0,0,1,.066-.722.974.974,0,0,1,1.865-.03,2.072,2.072,0,0,1,.089.774c0,2.822.01,5.644-.011,8.466,0,.454.137.559.569.555,2.13-.021,4.261-.029,6.391,0,.531.008.637-.159.636-.657q-.021-16.258-.01-32.519c0-3.42-.005-6.84.007-10.261,0-.369-.067-.523-.484-.519q-3.307.03-6.615,0c-.409,0-.495.14-.491.516.018,1.551,0,3.1.011,4.654a2.28,2.28,0,0,1-.123.882.9.9,0,0,1-1.079.585c-.532-.092-.815-.461-.818-1.16q-.014-3.111,0-6.223c0-.842.366-1.2,1.193-1.2q3.559-.006,7.12,0c1.3,0,1.28,0,1.307-1.32.011-.493-.166-.577-.609-.574-3.177.017-6.354.009-9.531.009-1.095,0-1.368.28-1.368,1.4q0,3.924,0,7.849c0,.84-.141,1.027-.941,1.286-.827-.283-.979-.5-.979-1.39q0-3.981,0-7.962a2.878,2.878,0,0,1,3.1-3.119q4.878-.008,9.755.006c.391,0,.56-.077.66-.514a2.811,2.811,0,0,1,3.7-2.091c2.62.739,5.237,1.493,7.855,2.242q4.007,1.145,8.014,2.292a2.9,2.9,0,0,1,2.341,3.115q0,20.829,0,41.659a2.9,2.9,0,0,1-2.365,3.149q-7.852,2.244-15.7,4.494c-.147.042-.345.012-.438.193Zm-.234-28.718q0,12.786,0,25.573c0,1.008.511,1.391,1.474,1.116l15.442-4.421c1.15-.33,1.251-.467,1.251-1.691V386.649c0-.149.005-.3,0-.449a1,1,0,0,0-.8-1.009q-8.018-2.292-16.031-4.6a1.03,1.03,0,0,0-.909.1,1.145,1.145,0,0,0-.428,1.089Q1473.961,394.477,1473.957,407.18Z" fill="#364d57"/>
    <path id="Path_14" data-name="Path 14" d="M1459.6,418.71a1.714,1.714,0,0,0-.719-.054c-6.138,0-12.277-.055-18.414.029-1.82.025-3.143-.444-3.848-2.193V401.124a1.369,1.369,0,0,1,.807-.637c.617-.107,1.1.387,1.1,1.154q.006,4.82,0,9.641c0,1.457-.007,2.914,0,4.372a.954.954,0,0,0,1.06,1.082c.355.006.709-.012,1.064-.019a.849.849,0,0,0,.111.015q12.727,0,25.456-.015c.669,0,1-.36,1-1.072q.008-8.467,0-16.935c0-.728-.343-1.057-1.067-1.066q-1.177-.015-2.355-.016h-19.064c-.963,0-1.4-.307-1.4-.976s.386-.937,1.41-.937h5.713c-.931-.959-1.769-1.831-2.62-2.69a.784.784,0,0,0-.572-.189q-3.309.006-6.616.008c-.261-.006-.522-.017-.783-.017-.959,0-1.168.17-1.35,1.1a.945.945,0,0,1-1.505.616,4.922,4.922,0,0,1-.4-.369v-1.122c.258-.232.279-.593.477-.864a2.83,2.83,0,0,1,2.368-1.267c2.612-.009,5.223,0,7.835-.005a2.988,2.988,0,0,1,2.186.966c1.17,1.178,2.347,2.349,3.52,3.525a.751.751,0,0,0,.56.312c1.958-.012,3.917-.01,5.875-.015a.6.6,0,0,0,.159-.047c.223.017.445.048.667.048,2.036,0,4.073-.023,6.109,0a2.782,2.782,0,0,1,2.8,2.822q.014,8.661,0,17.323a2.791,2.791,0,0,1-2.8,2.824c-.99.019-1.98-.008-2.97,0C1462.133,418.678,1460.864,418.6,1459.6,418.71Z" fill="#364d57"/>
    <path id="Path_15" data-name="Path 15" d="M1436.616,397.31c.078-.1.152-.206.237-.3a.944.944,0,0,1,1.388-.1.956.956,0,1,1-1.357,1.345c-.089-.09-.125-.233-.268-.27Z" fill="#364d57"/>
    <path id="Path_16" data-name="Path 16" d="M1459.6,418.71c1.267-.111,2.536-.032,3.8-.042.99-.009,1.98.018,2.97,0a2.791,2.791,0,0,0,2.8-2.824q.014-8.661,0-17.323a2.782,2.782,0,0,0-2.8-2.822c-2.036-.02-4.073,0-6.109,0-.222,0-.444-.031-.667-.048v-1.829c.8-.259.94-.446.941-1.286q0-3.924,0-7.849c0-1.125.273-1.4,1.368-1.4,3.177,0,6.354.008,9.531-.009.443,0,.62.081.609.574-.027,1.32,0,1.32-1.307,1.32q-3.56,0-7.12,0c-.827,0-1.19.356-1.193,1.2q-.014,3.111,0,6.223c0,.7.286,1.068.818,1.16a.9.9,0,0,0,1.079-.585,2.28,2.28,0,0,0,.123-.882c-.007-1.552.007-3.1-.011-4.654,0-.376.082-.519.491-.516q3.307.03,6.615,0c.417,0,.485.15.484.519-.012,3.421-.007,6.841-.007,10.261q0,16.26.01,32.519c0,.5-.1.665-.636.657-2.13-.033-4.261-.025-6.391,0-.432,0-.572-.1-.569-.555.021-2.822.01-5.644.011-8.466a2.072,2.072,0,0,0-.089-.774.974.974,0,0,0-1.865.03,2.593,2.593,0,0,0-.066.722c0,2.747.006,5.5-.01,8.242,0,.265.2.705-.176.775a1.177,1.177,0,0,1-1.7-1.255q0-3.981,0-7.962c0-.839-.143-1.029-.941-1.284Q1459.6,419.625,1459.6,418.71Z" fill="#e7ecfb"/>
    <path id="Path_17" data-name="Path 17" d="M1473.957,407.18q0-12.7,0-25.4a1.145,1.145,0,0,1,.428-1.089,1.03,1.03,0,0,1,.909-.1q8.013,2.309,16.031,4.6a1,1,0,0,1,.8,1.009c.007.15,0,.3,0,.449v41.108c0,1.224-.1,1.361-1.251,1.691l-15.442,4.421c-.963.275-1.473-.108-1.474-1.116Q1473.956,419.967,1473.957,407.18Zm1.911.123a4.259,4.259,0,0,0,.789,2.55,2.44,2.44,0,0,0,4.142.01,4.879,4.879,0,0,0-.009-5.379,2.44,2.44,0,0,0-4.112-.006A4.5,4.5,0,0,0,1475.868,407.3Z" fill="#e7ecfb"/>
    <path id="Path_18" data-name="Path 18" d="M1440.654,416.717a4.652,4.652,0,0,1-.23-1.7q.012-10.29,0-20.581a4.348,4.348,0,0,1,.226-1.591q3.307,0,6.616-.008a.784.784,0,0,1,.572.189c.851.859,1.689,1.731,2.62,2.69h-5.713c-1.024,0-1.411.257-1.41.937s.441.976,1.4.976H1463.8q1.178,0,2.355.016c.724.009,1.067.338,1.067,1.066q.008,8.468,0,16.935c0,.712-.335,1.072-1,1.072q-12.727.014-25.456.015A.849.849,0,0,1,1440.654,416.717Zm.768-9.554a4.725,4.725,0,0,0,5.455,4.739,4.612,4.612,0,0,0,3.853-3.246.616.616,0,0,1,.7-.505c1.588.024,3.177.02,4.765,0,.38,0,.541.092.514.5a11.3,11.3,0,0,0,0,1.4.944.944,0,0,0,.974.947.917.917,0,0,0,.927-.979c.007-.149,0-.3,0-.448,0-1.485,0-1.476,1.5-1.417.313.012.43.106.419.422a15,15,0,0,0,.008,1.513.95.95,0,0,0,.9.909.915.915,0,0,0,1-.847,7.29,7.29,0,0,0,.045-.837,2.663,2.663,0,0,1,.052-.995c.172-.349.608-.106.923-.163a1.007,1.007,0,0,0,.916-.97.98.98,0,0,0-.909-.971,3.847,3.847,0,0,0-.5-.012c-3.813,0-7.626-.008-11.438.01a.706.706,0,0,1-.816-.58,4.768,4.768,0,0,0-9.284,1.53Z" fill="#e7ecfb"/>
    <path id="Path_19" data-name="Path 19" d="M1475.868,407.3a4.5,4.5,0,0,1,.81-2.825,2.44,2.44,0,0,1,4.112.006,4.879,4.879,0,0,1,.009,5.379,2.44,2.44,0,0,1-4.142-.01A4.259,4.259,0,0,1,1475.868,407.3Zm3.823-.1a2.674,2.674,0,0,0-.494-1.634c-.3-.382-.617-.373-.932-.006a2.964,2.964,0,0,0-.021,3.216c.323.4.657.409.967,0A2.691,2.691,0,0,0,1479.691,407.2Z" fill="#364d57"/>
    <path id="Path_20" data-name="Path 20" d="M1441.422,407.163a4.768,4.768,0,0,1,9.284-1.53.706.706,0,0,0,.816.58c3.812-.018,7.625-.011,11.438-.01a3.847,3.847,0,0,1,.5.012.98.98,0,0,1,.909.971,1.007,1.007,0,0,1-.916.97c-.315.057-.751-.186-.923.163a2.663,2.663,0,0,0-.052.995,7.29,7.29,0,0,1-.045.837.915.915,0,0,1-1,.847.95.95,0,0,1-.9-.909,15,15,0,0,1-.008-1.513c.011-.316-.106-.41-.419-.422-1.5-.059-1.5-.068-1.5,1.417,0,.149,0,.3,0,.448a.917.917,0,0,1-.927.979.944.944,0,0,1-.974-.947,11.3,11.3,0,0,1,0-1.4c.027-.4-.134-.5-.514-.5-1.588.018-3.177.022-4.765,0a.616.616,0,0,0-.7.505,4.612,4.612,0,0,1-3.853,3.246A4.725,4.725,0,0,1,1441.422,407.163Zm4.774,2.863a2.844,2.844,0,1,0-.015-5.688,2.844,2.844,0,1,0,.015,5.688Z" fill="#364d57"/>
    <path id="Path_21" data-name="Path 21" d="M1479.691,407.2a2.691,2.691,0,0,1-.48,1.58c-.31.4-.644.394-.967,0a2.964,2.964,0,0,1,.021-3.216c.315-.367.632-.376.932.006A2.674,2.674,0,0,1,1479.691,407.2Z" fill="#e7ecfb"/>
    <path id="Path_22" data-name="Path 22" d="M1446.2,410.026a2.844,2.844,0,1,1,2.864-2.824A2.838,2.838,0,0,1,1446.2,410.026Z" fill="#e7ecfb"/>
  </g>
</svg>
