<svg xmlns="http://www.w3.org/2000/svg" width="58.019" height="58" viewBox="0 0 58.019 58">
  <g id="Group_94" data-name="Group 94" transform="translate(-1432.974 -559.343)">
    <path id="Path_35" data-name="Path 35" d="M1432.974,583.587a2.656,2.656,0,0,1,2.613-2.019c.372-.007.3-.261.3-.475,0-1.34.057-2.683-.01-4.02a3.015,3.015,0,0,1,3.225-3.246c2.13.077,4.266.039,6.4.009a5.1,5.1,0,0,1,2.74.744c.99.586,2,1.133,2.993,1.718a3.308,3.308,0,0,0,1.776.469c1.642-.018,3.284-.012,4.927,0a2.845,2.845,0,0,1,3.052,3.032c.005.453.01.906,0,1.359-.007.267.051.391.365.422a2.511,2.511,0,0,1,2.449,3.276c-.111.631-.216,1.263-.345,1.89-.089.433-.032.681.5.628a7.641,7.641,0,0,1,1.3,0c.424.031.65-.08.574-.55a2.489,2.489,0,0,1,0-.4c0-6.323.03-12.647-.02-18.97a3.012,3.012,0,0,1,3.266-3.251c.5.044.651-.118.628-.621a7.474,7.474,0,0,1,.066-1.918,2.855,2.855,0,0,1,2.774-2.309q7.788-.02,15.574,0a2.858,2.858,0,0,1,2.846,2.859q.032,2.945,0,5.889a2.8,2.8,0,0,1-2.758,2.812q-7.872.038-15.743,0a2.832,2.832,0,0,1-2.768-2.873q-.025-.763,0-1.528c.011-.294-.091-.383-.387-.395-1.227-.051-1.547.244-1.547,1.486,0,3.813.008,7.626-.011,11.439,0,.462.105.612.587.6,1.353-.027,1.358,0,1.352-1.353a3.868,3.868,0,0,1,.3-1.822,2.723,2.723,0,0,1,2.459-1.631c.924-.032,1.85-.012,2.775-.012,4.172,0,8.344.047,12.515-.02a3.042,3.042,0,0,1,3.248,3.231c-.077,1.771-.013,3.548-.019,5.322a2.905,2.905,0,0,1-3.065,3.052q-7.56.006-15.121,0a2.926,2.926,0,0,1-3.092-3.091c0-.453-.011-.907,0-1.359.009-.282-.075-.39-.38-.406-1.555-.083-1.554-.093-1.554,1.434,0,3.851.009,7.7-.011,11.553,0,.48.137.6.6.59,1.339-.025,1.337-.005,1.341-1.37a5.587,5.587,0,0,1,.058-1.071,2.874,2.874,0,0,1,2.861-2.416q7.729-.015,15.46,0a2.877,2.877,0,0,1,2.9,2.931q.02,2.859,0,5.719a2.827,2.827,0,0,1-2.885,2.922q-7.758.028-15.517,0a2.845,2.845,0,0,1-2.871-2.888c-.016-.509-.018-1.02,0-1.529.011-.3-.108-.374-.4-.386-1.541-.065-1.54-.073-1.54,1.445q0,5.381,0,10.76c0,1.076.661,1.57,1.718,1.312.254-.062.2-.23.21-.389a14,14,0,0,1,.078-2.088,2.779,2.779,0,0,1,2.695-2.315q7.871-.03,15.743,0a2.8,2.8,0,0,1,2.759,2.81c.021,1.963.016,3.926,0,5.889a2.908,2.908,0,0,1-2.011,2.734c-.122.041-.242.09-.363.135h-16.652c-.055-.159-.218-.129-.33-.175a2.917,2.917,0,0,1-1.915-2.808,9.215,9.215,0,0,1,.005-1.244c.05-.493-.1-.675-.617-.628a3,3,0,0,1-3.271-3.242c.053-5.472.019-10.946.019-16.418,0-1.02-.013-2.039.007-3.058.006-.347-.1-.463-.451-.448a10.564,10.564,0,0,1-1.64-.007c-.606-.068-.788.171-.884.744-.495,2.935-1.025,5.863-1.57,8.789a2.444,2.444,0,0,1-2.477,2.062q-10.389.012-20.779,0a2.444,2.444,0,0,1-2.44-1.974c-.435-2.256-.83-4.52-1.224-6.784a.919.919,0,0,1,.61-1.087.932.932,0,0,1,1.29.787c.344,1.795.658,3.6.985,5.392.342,1.878.005,1.779,2.167,1.722a.738.738,0,0,0,.112.016q9.542,0,19.082,0c.559,0,.754-.293.84-.781q1.2-6.784,2.4-13.566c.168-.951.02-1.128-.962-1.128q-11.692-.006-23.385-.009c-.225,0-.45.025-.676.038-.337-.012-.675-.034-1.013-.035-.736,0-.863.122-.915.874a.951.951,0,0,1-1.372.833c-.272-.131-.385-.394-.567-.6Zm6.791-2.076c.226.006.452.017.678.017h15.9c.132,0,.264-.009.4,0,.263.02.373-.086.367-.357-.014-.6,0-1.208-.012-1.811-.01-.415-.178-.648-.659-.637-1.15.027-2.3-.011-3.451.014a4.823,4.823,0,0,1-2.736-.743,1.339,1.339,0,0,0-.781-.293,2.069,2.069,0,0,1-1.13-.308c-.775-.427-1.544-.864-2.313-1.3a1.645,1.645,0,0,0-.838-.3c-1.735.013-3.47.013-5.205.018-.413-.012-.829-.052-1.24-.028a.885.885,0,0,0-.907.9c-.02,1.509-.008,3.019-.014,4.529,0,.222.05.364.311.349A10.5,10.5,0,0,0,1439.765,581.511Zm40.562-12.516v-.015q3.736,0,7.474,0c.916,0,1.229-.308,1.231-1.215q0-2.633,0-5.265c0-.855-.353-1.211-1.2-1.212q-7.5-.009-15.005-.01c-.838,0-1.2.362-1.2,1.215q-.011,2.633,0,5.266c0,.9.346,1.235,1.229,1.236Q1476.589,569,1480.327,568.995Zm.038,30.929v-.016q3.736,0,7.474,0c.872,0,1.191-.32,1.193-1.2q.006-2.634,0-5.266c0-.887-.347-1.23-1.237-1.231q-7.446-.009-14.892-.011c-.924,0-1.276.343-1.279,1.255q-.009,2.6,0,5.209c0,.923.341,1.254,1.267,1.255Q1476.627,599.928,1480.365,599.924Zm-.009,7.786V607.7q-3.765,0-7.53,0c-.827,0-1.194.339-1.2,1.149q-.019,2.718,0,5.435a1.016,1.016,0,0,0,1.171,1.132q7.531,0,15.062-.01c.81,0,1.169-.365,1.171-1.183q.008-2.661,0-5.322c0-.87-.323-1.186-1.2-1.187Q1484.094,607.707,1480.356,607.71Zm0-30.929v-.016q-3.766,0-7.531,0c-.829,0-1.2.337-1.2,1.148q-.019,2.717,0,5.435a1.017,1.017,0,0,0,1.17,1.134q7.531,0,15.061-.01c.811,0,1.171-.366,1.173-1.182q.008-2.661,0-5.322c0-.873-.32-1.187-1.2-1.188Q1484.094,576.779,1480.358,576.781Z" fill="#364d57"/>
    <path id="Path_36" data-name="Path 36" d="M1439.426,598.966c-.1-1.233-.393-2.436-.6-3.652-.429-2.508-.879-5.011-1.325-7.515-.194-1.087-.384-2.175-.609-3.256a4.52,4.52,0,0,1-.051-1.009c.226-.013.451-.038.676-.038q11.693,0,23.385.009c.982,0,1.13.177.962,1.128q-1.2,6.783-2.4,13.566c-.086.488-.281.782-.84.781q-9.54-.009-19.082,0A.738.738,0,0,1,1439.426,598.966Zm3.653-7.7c.793,0,1.586.013,2.378,0a1.962,1.962,0,0,0,2.015-2.052q.009-.878,0-1.755a1.945,1.945,0,0,0-1.985-2.022q-2.378-.033-4.756,0a1.949,1.949,0,0,0-1.966,1.991c-.014.584-.008,1.17,0,1.755a1.984,1.984,0,0,0,2.108,2.084C1441.607,591.27,1442.343,591.264,1443.079,591.264Zm-.006,3.861c.791,0,1.583.015,2.373,0a.99.99,0,0,0,1.06-1.01.973.973,0,0,0-1.074-.913q-2.288-.011-4.575,0c-.713,0-1.09.332-1.1.926-.008.609.4.99,1.11,1C1441.6,595.135,1442.339,595.126,1443.073,595.125Z" fill="#e6ebfb"/>
    <path id="Path_37" data-name="Path 37" d="M1480.327,568.995q-3.736,0-7.474,0c-.883,0-1.226-.341-1.229-1.236q-.011-2.633,0-5.266c0-.853.366-1.215,1.2-1.215q7.5,0,15.005.01c.846,0,1.2.357,1.2,1.212q0,2.633,0,5.265c0,.907-.315,1.214-1.231,1.215q-3.736,0-7.474,0Zm2.891-4.8c-.924,0-1.847-.006-2.771,0-.67.006-1.037.337-1.049.917a.927.927,0,0,0,.986,1q2.854.028,5.711,0a1,1,0,0,0,1.023-.994.976.976,0,0,0-1.073-.924C1485.1,564.191,1484.16,564.2,1483.218,564.2Zm-7.739,1.925v0c.321,0,.643.018.962,0a1,1,0,0,0,1-1.02.972.972,0,0,0-1.032-.9c-.6-.01-1.208-.011-1.811,0a.981.981,0,0,0-1.029.911,1,1,0,0,0,.951,1.005C1474.836,566.146,1475.159,566.122,1475.479,566.122Z" fill="#e6ebfb"/>
    <path id="Path_38" data-name="Path 38" d="M1480.365,599.924q-3.736,0-7.474,0c-.926,0-1.264-.332-1.267-1.255q-.009-2.6,0-5.209c0-.912.355-1.255,1.279-1.255q7.446,0,14.892.011c.89,0,1.235.344,1.237,1.231q0,2.633,0,5.266c0,.875-.321,1.194-1.193,1.2q-3.738,0-7.474,0Zm2.855-2.868c.923,0,1.846.007,2.77,0a1.035,1.035,0,0,0,1.127-1.008c-.016-.552-.455-.916-1.137-.917q-2.713-.008-5.426,0c-.767,0-1.149.315-1.156.929-.008.635.4.993,1.165,1C1481.448,597.061,1482.334,597.056,1483.22,597.056Zm-7.691-1.925v0c-.34,0-.68-.013-1.019,0a.938.938,0,0,0-.933.882.864.864,0,0,0,.7.968,7.048,7.048,0,0,0,2.471,0,.941.941,0,0,0-.2-1.844C1476.209,595.115,1475.868,595.131,1475.529,595.131Z" fill="#e6ebfb"/>
    <path id="Path_39" data-name="Path 39" d="M1480.356,607.71q3.738,0,7.474,0c.878,0,1.2.317,1.2,1.187q.008,2.661,0,5.322c0,.818-.361,1.182-1.171,1.183q-7.531.009-15.062.01a1.016,1.016,0,0,1-1.171-1.132q-.021-2.717,0-5.435c.006-.81.373-1.148,1.2-1.149q3.765,0,7.53,0Zm2.842,4.782c.942,0,1.884.006,2.827,0a.985.985,0,0,0,1.094-.962,1.013,1.013,0,0,0-1.06-.959q-2.828-.025-5.655,0a.931.931,0,0,0-1.006.982c0,.587.366.931,1.029.938C1481.35,612.5,1482.274,612.492,1483.2,612.492Zm-7.7-.005v0c.321,0,.642.01.962,0a.956.956,0,0,0,.968-.845.922.922,0,0,0-.767-1.031,7.825,7.825,0,0,0-2.362.015.942.942,0,0,0,.181,1.857C1474.82,612.5,1475.161,612.487,1475.5,612.487Z" fill="#e6ebfb"/>
    <path id="Path_40" data-name="Path 40" d="M1480.358,576.781q3.736,0,7.473,0c.88,0,1.2.315,1.2,1.188q.008,2.661,0,5.322c0,.816-.362,1.181-1.173,1.182q-7.53.011-15.061.01a1.017,1.017,0,0,1-1.17-1.134q-.021-2.718,0-5.435c.006-.811.372-1.147,1.2-1.148q3.765-.006,7.531,0Zm2.859,4.782c.942,0,1.884.007,2.826,0a.978.978,0,0,0,1.074-.924,1.017,1.017,0,0,0-1.077-1q-2.8-.016-5.6,0a.944.944,0,0,0-1.045,1c.011.577.383.915,1.049.922C1481.37,581.57,1482.294,581.563,1483.217,581.563Zm-7.751-.005c.359,0,.719.016,1.076,0a.868.868,0,0,0,.872-.811.829.829,0,0,0-.612-1.014,6.184,6.184,0,0,0-2.577-.005.82.82,0,0,0-.635,1,.881.881,0,0,0,.857.831C1474.786,581.576,1475.127,581.557,1475.466,581.558Z" fill="#e6ebfb"/>
    <path id="Path_41" data-name="Path 41" d="M1439.981,575.815c1.735-.005,3.47-.005,5.205-.018a1.645,1.645,0,0,1,.838.3c.769.438,1.538.875,2.313,1.3a2.069,2.069,0,0,0,1.13.308,1.339,1.339,0,0,1,.781.293,4.823,4.823,0,0,0,2.736.743c1.15-.025,2.3.013,3.451-.014.481-.011.649.222.659.637.014.6,0,1.207.012,1.811.006.271-.1.377-.367.357-.132-.01-.264,0-.4,0h-15.9c-.226,0-.452-.011-.678-.017,0-1.575,0-3.15-.006-4.725A1.983,1.983,0,0,1,1439.981,575.815Z" fill="#e6ebfb"/>
    <path id="Path_42" data-name="Path 42" d="M1435.594,588.151a.951.951,0,0,1-.961.972,1,1,0,0,1-.96-.995.959.959,0,0,1,.954-.926A.915.915,0,0,1,1435.594,588.151Z" fill="#364d57"/>
    <path id="Path_43" data-name="Path 43" d="M1443.079,591.264c-.736,0-1.472.006-2.208,0a1.984,1.984,0,0,1-2.108-2.084c-.006-.585-.012-1.171,0-1.755a1.949,1.949,0,0,1,1.966-1.991q2.378-.037,4.756,0a1.945,1.945,0,0,1,1.985,2.022q.01.878,0,1.755a1.962,1.962,0,0,1-2.015,2.052C1444.665,591.277,1443.872,591.264,1443.079,591.264Zm.076-3.907h-1.017c-1.5,0-1.486,0-1.454,1.532.007.345.108.454.453.45q1.976-.024,3.953,0c.329,0,.488-.072.46-.437a8.321,8.321,0,0,1,0-1.128c.02-.322-.1-.431-.418-.422C1444.473,587.37,1443.813,587.357,1443.155,587.357Z" fill="#364d57"/>
    <path id="Path_44" data-name="Path 44" d="M1443.073,595.126c-.734,0-1.468.009-2.2,0-.707-.01-1.118-.391-1.11-1,.007-.594.384-.923,1.1-.926q2.287-.009,4.575,0a.973.973,0,0,1,1.074.913.99.99,0,0,1-1.06,1.01C1444.656,595.14,1443.864,595.125,1443.073,595.126Z" fill="#364d57"/>
    <path id="Path_45" data-name="Path 45" d="M1483.218,564.2c.942,0,1.885-.007,2.827,0a.976.976,0,0,1,1.073.924,1,1,0,0,1-1.023.994q-2.856.031-5.711,0a.927.927,0,0,1-.986-1c.012-.58.379-.911,1.049-.917C1481.371,564.191,1482.294,564.2,1483.218,564.2Z" fill="#364d57"/>
    <path id="Path_46" data-name="Path 46" d="M1475.479,566.122c-.32,0-.643.024-.961-.005a1,1,0,0,1-.951-1.005.981.981,0,0,1,1.029-.911c.6-.012,1.207-.011,1.811,0a.972.972,0,0,1,1.032.9,1,1,0,0,1-1,1.02c-.319.022-.641,0-.962,0Z" fill="#364d57"/>
    <path id="Path_47" data-name="Path 47" d="M1483.22,597.056c-.886,0-1.772,0-2.657,0-.763-.005-1.173-.363-1.165-1,.007-.614.389-.928,1.156-.929q2.714-.006,5.426,0c.682,0,1.121.365,1.137.917a1.035,1.035,0,0,1-1.127,1.008C1485.066,597.063,1484.143,597.056,1483.22,597.056Z" fill="#364d57"/>
    <path id="Path_48" data-name="Path 48" d="M1475.529,595.131c.339,0,.68-.016,1.018,0a.941.941,0,0,1,.2,1.844,7.048,7.048,0,0,1-2.471,0,.864.864,0,0,1-.7-.968.938.938,0,0,1,.933-.882c.339-.016.679,0,1.019,0Z" fill="#364d57"/>
    <path id="Path_49" data-name="Path 49" d="M1483.2,612.492c-.924,0-1.848.008-2.771,0-.663-.007-1.027-.351-1.029-.938a.931.931,0,0,1,1.006-.982q2.827-.025,5.655,0a1.013,1.013,0,0,1,1.06.959.985.985,0,0,1-1.094.962C1485.082,612.5,1484.14,612.492,1483.2,612.492Z" fill="#364d57"/>
    <path id="Path_50" data-name="Path 50" d="M1475.5,612.487c-.339,0-.68.013-1.018,0a.942.942,0,0,1-.181-1.857,7.825,7.825,0,0,1,2.362-.015.922.922,0,0,1,.767,1.031.956.956,0,0,1-.968.845c-.32.012-.641,0-.962,0Z" fill="#364d57"/>
    <path id="Path_51" data-name="Path 51" d="M1483.217,581.563c-.923,0-1.847.007-2.77,0-.666-.007-1.038-.345-1.049-.922a.944.944,0,0,1,1.045-1q2.8-.02,5.6,0a1.017,1.017,0,0,1,1.077,1,.978.978,0,0,1-1.074.924C1485.1,581.57,1484.159,581.563,1483.217,581.563Z" fill="#364d57"/>
    <path id="Path_52" data-name="Path 52" d="M1475.466,581.558c-.339,0-.68.018-1.019-.005a.881.881,0,0,1-.857-.831.82.82,0,0,1,.635-1,6.184,6.184,0,0,1,2.577.005.829.829,0,0,1,.612,1.014.868.868,0,0,1-.872.811C1476.185,581.574,1475.825,581.558,1475.466,581.558Z" fill="#364d57"/>
    <path id="Path_53" data-name="Path 53" d="M1443.155,587.357c.658,0,1.318.013,1.976-.006.319-.009.438.1.418.422a8.321,8.321,0,0,0,0,1.128c.028.365-.131.441-.46.437q-1.977-.021-3.953,0c-.345,0-.446-.1-.453-.45-.032-1.532-.043-1.532,1.454-1.532Z" fill="#e6ebfb"/>
  </g>
</svg>
