<svg xmlns="http://www.w3.org/2000/svg" width="58.946" height="58" viewBox="0 0 58.946 58">
  <g id="Group_96" data-name="Group 96" transform="translate(-1440.183 -730.343)">
    <path id="Path_68" data-name="Path 68" d="M1440.183,780.166V737.437a6.675,6.675,0,0,1,2.678-2.954,23.108,23.108,0,0,1,6.851-2.57,63.027,63.027,0,0,1,12.654-1.533,67.578,67.578,0,0,1,17.877,1.65,20.793,20.793,0,0,1,6.642,2.623,4.808,4.808,0,0,1,2.457,4.362c-.073,7.254-.023,14.51-.041,21.765a.7.7,0,0,0,.577.8,12.851,12.851,0,0,1,5.3,3.337,13.283,13.283,0,0,1,3.843,11.242,13.1,13.1,0,0,1-7.2,10.517,13.294,13.294,0,0,1-13.4-.3,1.276,1.276,0,0,0-.919-.159,70.073,70.073,0,0,1-10.29,1.066,75.717,75.717,0,0,1-12-.562,39.7,39.7,0,0,1-10.083-2.416C1443.054,783.452,1441.107,782.411,1440.183,780.166Zm1.964-38.689c0,3.506,0,6.939,0,10.372a1.781,1.781,0,0,0,.6,1.266,9.128,9.128,0,0,0,3.238,1.925,41.726,41.726,0,0,0,11.2,2.433,76.919,76.919,0,0,0,11.786.248,53.505,53.505,0,0,0,12.137-1.859,15.428,15.428,0,0,0,5.159-2.318,2.144,2.144,0,0,0,1.066-1.686c.011-3.321,0-6.641.01-9.962,0-.372-.121-.384-.394-.194a13,13,0,0,1-2.7,1.391,46.983,46.983,0,0,1-13.7,2.734,72.329,72.329,0,0,1-16.646-.568C1449.813,744.635,1445.787,743.8,1442.147,741.477Zm45.188,13.792a1.986,1.986,0,0,0-.275.117,18.161,18.161,0,0,1-5.294,2.321,56.765,56.765,0,0,1-12.929,1.982,71.4,71.4,0,0,1-17.864-1.182,26.144,26.144,0,0,1-7.8-2.654c-.324-.182-.635-.387-1-.607-.015.153-.029.225-.029.3q0,4.98,0,9.96a1.894,1.894,0,0,0,.609,1.38,8.931,8.931,0,0,0,3.138,1.873,44.764,44.764,0,0,0,13.425,2.651,80.641,80.641,0,0,0,12.189-.1.626.626,0,0,0,.663-.54,12.338,12.338,0,0,1,2.105-4.315,13.5,13.5,0,0,1,12.546-5.556c.416.034.536-.044.523-.461-.027-.862-.008-1.727-.008-2.59ZM1465.022,744.1c1.635-.034,3.554-.068,5.468-.215a48.159,48.159,0,0,0,11.954-2.2,10.785,10.785,0,0,0,4.266-2.295,1.467,1.467,0,0,0,.008-2.391,8.762,8.762,0,0,0-3.136-1.873,44.467,44.467,0,0,0-13.368-2.639,74.055,74.055,0,0,0-16.189.569,35.69,35.69,0,0,0-8.218,2.1,8.64,8.64,0,0,0-3.072,1.87,1.467,1.467,0,0,0-.009,2.312,5.761,5.761,0,0,0,1.272.979,21.422,21.422,0,0,0,5.844,2.182A65.394,65.394,0,0,0,1465.022,744.1Zm8.564,30.4a11.787,11.787,0,1,0,11.857-11.727A11.746,11.746,0,0,0,1473.586,774.5Zm2.31,10.017a14.867,14.867,0,0,1-1.906-2.273,13.761,13.761,0,0,1-2.326-8.5c.021-.4-.095-.494-.476-.456-1.643.16-3.293.191-4.943.238a68.027,68.027,0,0,1-14.938-1.193,26.832,26.832,0,0,1-8.042-2.668c-.36-.2-.7-.428-1.066-.649a.741.741,0,0,0-.049.157q0,5.067,0,10.134a1.8,1.8,0,0,0,.522,1.241,5.494,5.494,0,0,0,1.307,1.027,23.9,23.9,0,0,0,7.189,2.5,61.544,61.544,0,0,0,10.271,1.208A75,75,0,0,0,1475.9,784.515Z" fill="#364d57"/>
    <path id="Path_69" data-name="Path 69" d="M1442.147,741.477c3.64,2.319,7.666,3.158,11.749,3.782a72.329,72.329,0,0,0,16.646.568,46.983,46.983,0,0,0,13.7-2.734,13,13,0,0,0,2.7-1.391c.273-.19.394-.178.394.194-.006,3.321,0,6.641-.01,9.962a2.144,2.144,0,0,1-1.066,1.686,15.428,15.428,0,0,1-5.159,2.318,53.505,53.505,0,0,1-12.137,1.859,76.919,76.919,0,0,1-11.786-.248,41.726,41.726,0,0,1-11.2-2.433,9.128,9.128,0,0,1-3.238-1.925,1.781,1.781,0,0,1-.6-1.266C1442.143,748.416,1442.147,744.983,1442.147,741.477Z" fill="#e7ecfb"/>
    <path id="Path_70" data-name="Path 70" d="M1487.335,755.269v2.572c0,.863-.019,1.728.008,2.59.013.417-.107.495-.523.461a13.5,13.5,0,0,0-12.546,5.556,12.338,12.338,0,0,0-2.105,4.315.626.626,0,0,1-.663.54,80.641,80.641,0,0,1-12.189.1,44.764,44.764,0,0,1-13.425-2.651,8.931,8.931,0,0,1-3.138-1.873,1.894,1.894,0,0,1-.609-1.38q0-4.98,0-9.96c0-.072.014-.144.029-.3.361.22.672.425,1,.607a26.144,26.144,0,0,0,7.8,2.654,71.4,71.4,0,0,0,17.864,1.182,56.765,56.765,0,0,0,12.929-1.982,18.161,18.161,0,0,0,5.294-2.321A1.986,1.986,0,0,1,1487.335,755.269Z" fill="#e7ecfb"/>
    <path id="Path_71" data-name="Path 71" d="M1465.022,744.1a65.394,65.394,0,0,1-15.18-1.593,21.422,21.422,0,0,1-5.844-2.182,5.761,5.761,0,0,1-1.272-.979,1.467,1.467,0,0,1,.009-2.312,8.64,8.64,0,0,1,3.072-1.87,35.69,35.69,0,0,1,8.218-2.1,74.055,74.055,0,0,1,16.189-.569,44.467,44.467,0,0,1,13.368,2.639,8.762,8.762,0,0,1,3.136,1.873,1.467,1.467,0,0,1-.008,2.391,10.785,10.785,0,0,1-4.266,2.295,48.159,48.159,0,0,1-11.954,2.2C1468.576,744.032,1466.657,744.066,1465.022,744.1Z" fill="#e7ecfb"/>
    <path id="Path_72" data-name="Path 72" d="M1473.586,774.5a11.787,11.787,0,1,1,23.573.192,11.787,11.787,0,0,1-23.573-.192Zm6.669-.916v0c-1.208,0-2.417-.008-3.625,0a.985.985,0,0,0-1.072.9,1.031,1.031,0,0,0,1.007,1.047,4.682,4.682,0,0,0,.517.009h6.273c1.045,0,1.045,0,1.045,1.021,0,2.225-.006,4.451,0,6.676a.977.977,0,0,0,1.32,1.042c.539-.2.641-.66.64-1.171,0-2.321.012-4.643-.011-6.964-.005-.473.122-.62.606-.615,2.283.025,4.566.01,6.849.012a1.812,1.812,0,0,0,.789-.117.9.9,0,0,0,.581-.961.912.912,0,0,0-.85-.87,5.245,5.245,0,0,0-.575-.016c-2.283,0-4.566-.011-6.849.009-.431,0-.554-.125-.55-.554.02-2.226.009-4.451.009-6.677,0-.192.008-.384,0-.575a1.021,1.021,0,0,0-1-1.049.989.989,0,0,0-.956,1.026c-.01.153,0,.307,0,.46,0,2.264-.013,4.528.01,6.792.005.463-.14.587-.587.577C1482.634,773.564,1481.445,773.582,1480.255,773.582Z" fill="#e7ecfb"/>
    <path id="Path_73" data-name="Path 73" d="M1475.9,784.515a75,75,0,0,1-14.46.765,61.544,61.544,0,0,1-10.271-1.208,23.9,23.9,0,0,1-7.189-2.5,5.494,5.494,0,0,1-1.307-1.027,1.8,1.8,0,0,1-.522-1.241q0-5.067,0-10.134a.741.741,0,0,1,.049-.157c.362.221.706.45,1.066.649a26.832,26.832,0,0,0,8.042,2.668,68.027,68.027,0,0,0,14.938,1.193c1.65-.047,3.3-.078,4.943-.238.381-.038.5.056.476.456a13.761,13.761,0,0,0,2.326,8.5A14.867,14.867,0,0,0,1475.9,784.515Z" fill="#e7ecfb"/>
    <path id="Path_74" data-name="Path 74" d="M1480.255,773.582c1.19,0,2.379-.018,3.568.01.447.01.592-.114.587-.577-.023-2.264-.01-4.528-.01-6.792,0-.153-.006-.307,0-.46a.989.989,0,0,1,.956-1.026,1.021,1.021,0,0,1,1,1.049c.011.191,0,.383,0,.575,0,2.226.011,4.451-.009,6.677,0,.429.119.557.55.554,2.283-.02,4.566-.01,6.849-.009a5.245,5.245,0,0,1,.575.016.912.912,0,0,1,.85.87.9.9,0,0,1-.581.961,1.812,1.812,0,0,1-.789.117c-2.283,0-4.566.013-6.849-.012-.484,0-.611.142-.606.615.023,2.321.009,4.643.011,6.964,0,.511-.1.971-.64,1.171a.977.977,0,0,1-1.32-1.042c-.01-2.225,0-4.451,0-6.676,0-1.021,0-1.021-1.045-1.021h-6.273a4.682,4.682,0,0,1-.517-.009,1.031,1.031,0,0,1-1.007-1.047.985.985,0,0,1,1.072-.9c1.208-.012,2.417,0,3.625,0Z" fill="#364d57"/>
  </g>
</svg>
