<svg xmlns="http://www.w3.org/2000/svg" width="60.336" height="59.917" viewBox="0 0 60.336 59.917">
  <g id="Group_93" data-name="Group 93" transform="translate(-1624.664 -377.426)">
    <path id="Path_33" data-name="Path 33" d="M1682,436.343h-52v-43l12-1v-6l13-8,12,8v6h16Z" fill="#e7ecfb"/>
    <g id="Group_92" data-name="Group 92">
      <path id="Path_34" data-name="Path 34" d="M1683.78,436.332q-28.8,0-57.593.011a.521.521,0,0,1-.522-.548c.036-.955.011-1.912.011-2.867.407,0,.814.008,1.22,0a.739.739,0,0,0,.732-.736q0-10.145,0-20.288,0-7.679,0-15.357a.741.741,0,0,0-.735-.738c-.4-.006-.811,0-1.217.007h0a3.4,3.4,0,0,1,3.405-3.4q4.537,0,9.076-.012c.569,0,.617.174.488,1.171a18.069,18.069,0,0,0,.023,4.6c.106.832-.007,1-.548.995-1.437-.022-2.875,0-4.312-.015-.408-.005-.53.128-.48.625a16.036,16.036,0,0,1-.011,2.234c-.017.425.111.558.541.55,1.4-.025,2.8.009,4.2-.02.474-.009.683.084.65.616a20.64,20.64,0,0,0,0,2.268c.021.443-.145.536-.553.53-1.456-.022-2.913,0-4.369-.014-.34,0-.47.1-.462.449.02.813.024,1.627,0,2.44-.013.388.1.522.5.516,1.459-.023,2.919,0,4.378-.018a.491.491,0,0,1,.5.512c-.028.793-.036,1.59,0,2.383.022.451-.153.528-.555.522-1.437-.022-2.875,0-4.312-.017-.415-.006-.555.109-.514.6a10.451,10.451,0,0,1,0,2.236.506.506,0,0,0,.516.588c1.462-.028,2.926,0,4.388-.02.44-.007.508.163.465.654a14.065,14.065,0,0,0,.013,2.181c.033.5-.144.591-.579.583-1.4-.024-2.8.009-4.2-.019-.451-.009-.64.083-.612.578.042.755.034,1.514,0,2.269-.018.433.095.586.559.576,1.4-.033,2.8.01,4.2-.024.492-.012.637.108.632.619-.026,2.95-.005,5.9-.021,8.85,0,.4.075.576.524.548.664-.041,1.333,0,2-.012a.778.778,0,0,0,.774-.774q0-22.779-.006-45.558c0-.629.218-.888,1.316-1.26a26.62,26.62,0,0,0,9.8-5.832c1.219-1.156,1.5-1.373,2.129-.989q5.821,3.573,11.669,7.1a1.079,1.079,0,0,1,.589,1.077q-.02,22.638-.011,45.274a3.608,3.608,0,0,1,0,.454c-.049.385.083.535.495.518.727-.032,1.459-.039,2.186,0a.579.579,0,0,0,.625-.587c-.023-2.95,0-5.9-.02-8.851,0-.428.087-.588.555-.578,1.455.032,2.912,0,4.368.021.405.007.515-.118.5-.511q-.043-1.218,0-2.439c.013-.383-.121-.472-.483-.467-1.474.018-2.95-.005-4.425.016-.412,0-.551-.1-.511-.588a8.013,8.013,0,0,0,.005-2.2.512.512,0,0,1,.514-.629c1.441.028,2.884,0,4.325.02.428.007.609-.077.577-.567a12.529,12.529,0,0,1-.019-2.078c.06-.592,0-.785-.51-.775-1.437.029-2.875,0-4.312.019-.415.006-.614-.064-.588-.546.042-.773.033-1.551,0-2.325-.017-.418.1-.554.537-.546,1.455.027,2.912,0,4.368.018.378.005.537-.075.52-.493-.033-.793-.036-1.589,0-2.382.02-.438-.132-.539-.545-.532-1.459.023-2.918,0-4.376.017a.491.491,0,0,1-.5-.514c.026-.767.033-1.538,0-2.305a.556.556,0,0,1,.574-.594c1.459.026,2.92,0,4.379.017a.459.459,0,0,0,.47-.479c-.026-.794-.031-1.59,0-2.383.017-.419-.1-.555-.531-.548-1.437.026-2.875,0-4.312.018-.482.008-.625-.127-.575-.744a31.068,31.068,0,0,0,0-5.186c-.061-.7.061-.84.59-.838,3.5.019,7,.007,10.5.014h.2a1.924,1.924,0,0,1,1.953,1.912v.019a2.046,2.046,0,0,1-.322,1.38c-.279.279-.866.1-1.312.074s-.522.137-.522.545q.016,18.042,0,36.084c0,.38.073.559.49.512.3-.034.609.025.906-.014.474-.062.561.148.548.572C1683.76,434.44,1683.78,435.387,1683.78,436.332Zm-27.352-6.4c0-.87-.011-1.739.006-2.608.006-.31-.072-.435-.406-.427-.869.021-1.739.015-2.608,0-.281,0-.4.066-.4.376q.02,2.637,0,5.273c0,.348.139.4.436.394.85-.015,1.7-.025,2.55,0,.376.013.434-.139.427-.462C1656.416,431.628,1656.428,430.777,1656.428,429.927Zm-.037-36.266h.037c0-.452-.016-.9.005-1.356.013-.3-.1-.391-.39-.387-.885.013-1.771.011-2.656,0-.262,0-.368.079-.364.355.014.885.016,1.771,0,2.656-.005.3.1.4.391.388.451-.015.905.012,1.356-.007.541-.023,1.263.24,1.569-.118C1656.6,394.888,1656.391,394.187,1656.391,393.661Zm-1.676,8.776c.452,0,.905-.01,1.356,0,.265.008.365-.084.361-.358-.013-.885-.015-1.771,0-2.656.005-.3-.108-.389-.393-.385-.886.012-1.771.01-2.657,0-.262,0-.365.084-.361.359.014.885.016,1.771,0,2.656-.006.3.106.394.393.383C1653.848,402.425,1654.282,402.437,1654.715,402.437Zm-4.859,5.437c0-.434-.01-.867,0-1.3.008-.267-.044-.418-.365-.412-.886.017-1.772.015-2.658,0-.3-.005-.387.116-.383.4q.018,1.3,0,2.6c0,.277.058.412.372.406q1.329-.024,2.658,0c.307.006.39-.109.377-.4C1649.842,408.742,1649.855,408.308,1649.856,407.874Zm4.87,1.69c.434,0,.869-.019,1.3.006.335.019.412-.117.406-.426-.018-.849-.016-1.7,0-2.548.005-.3-.057-.445-.4-.437-.868.021-1.736.015-2.6,0-.277,0-.412.058-.406.374q.027,1.329,0,2.661c-.007.315.125.381.4.371C1653.857,409.552,1654.292,409.564,1654.726,409.564Zm6.468-.04v.039c.452,0,.905-.007,1.357,0,.234.005.339-.073.337-.324q-.014-1.356,0-2.714c0-.266-.089-.368-.359-.365q-1.356.015-2.714,0c-.243,0-.336.089-.331.331.011.452-.013.9.007,1.357.024.558-.247,1.3.119,1.617C1659.925,409.737,1660.651,409.524,1661.194,409.524Zm-11.378,5.529h.039c0-.453-.012-.906.005-1.359.011-.285-.072-.4-.379-.4-.887.017-1.775.013-2.662,0-.264,0-.369.082-.366.356.012.906.01,1.812,0,2.718,0,.243.082.338.327.332.472-.011.945.014,1.416-.007.539-.024,1.26.244,1.565-.115C1650.021,416.279,1649.816,415.579,1649.816,415.053Zm4.919-1.749c-.435,0-.87.019-1.3-.006-.334-.02-.415.114-.409.425.017.869.012,1.739,0,2.608,0,.247.041.382.335.377q1.36-.023,2.722,0c.277,0,.354-.1.35-.363-.012-.888-.015-1.776,0-2.665.005-.3-.1-.394-.4-.381C1655.6,413.318,1655.17,413.3,1654.735,413.3Zm6.436,3.4c.454,0,.907-.011,1.36,0,.268.009.363-.088.359-.358-.012-.906-.01-1.812,0-2.718,0-.246-.092-.332-.333-.33-.907.008-1.813.011-2.719,0-.276,0-.356.1-.353.364q.016,1.359,0,2.718c0,.246.084.333.328.326C1660.265,416.693,1660.718,416.7,1661.171,416.7Zm-13.011,7.137c.434,0,.869-.014,1.3.005.284.012.4-.068.4-.377q-.025-1.33,0-2.662c.007-.315-.123-.375-.4-.37q-1.3.02-2.605,0c-.275,0-.411.057-.4.372q.027,1.33,0,2.662c-.006.313.128.384.406.374C1647.291,423.829,1647.726,423.84,1648.16,423.84Zm8.268-1.7c0-.435-.012-.87,0-1.3.01-.272-.044-.413-.365-.406-.888.019-1.777.012-2.665,0-.245,0-.384.035-.379.334.016.907.014,1.814,0,2.721,0,.278.1.355.365.352.889-.011,1.777-.016,2.665,0,.309.006.39-.113.378-.4C1656.415,423.014,1656.428,422.579,1656.428,422.144Zm4.8,1.7c.434,0,.869-.012,1.3,0,.272.009.361-.1.358-.364-.011-.887-.015-1.774,0-2.661.005-.3-.106-.388-.394-.383q-1.331.021-2.662,0c-.274,0-.356.093-.353.359.013.906.01,1.813,0,2.719,0,.241.082.336.328.329C1660.285,423.83,1660.757,423.84,1661.229,423.84Zm-11.374-30.1c0-.547-.01-1,0-1.453.009-.262-.076-.372-.351-.368q-1.332.016-2.664,0c-.292,0-.4.1-.392.394q.023,1.3,0,2.607c-.005.294.095.407.389.4.453-.015.907.008,1.36-.006.525-.016,1.2.223,1.536-.091C1650.1,394.878,1649.794,394.184,1649.855,393.74Zm11.186,1.574c.555,0,1.008-.005,1.461,0,.239,0,.392-.042.388-.339-.013-.906-.01-1.813,0-2.72,0-.243-.093-.339-.332-.335-.453.007-.907-.009-1.36,0-.545.014-1.261-.23-1.589.089-.358.348-.112,1.073-.11,1.632,0,.539-.246,1.232.109,1.575C1659.934,395.536,1660.617,395.278,1661.041,395.314Zm-12.9,7.124c.435,0,.869-.01,1.3,0,.267.008.419-.043.412-.366-.018-.888-.013-1.776,0-2.664,0-.263-.08-.372-.354-.369q-1.332.017-2.664,0c-.292,0-.4.1-.39.4q.023,1.3,0,2.607c0,.294.1.407.391.4C1647.277,402.426,1647.712,402.437,1648.146,402.438Zm11.342-1.683c0,.434.016.869-.005,1.3-.015.3.107.388.394.384.869-.013,1.738-.011,2.607,0,.275,0,.413-.066.407-.379-.016-.887-.014-1.776,0-2.663.005-.283-.119-.357-.372-.355-.888.006-1.776.012-2.663,0-.314,0-.382.133-.372.41C1659.5,399.885,1659.488,400.32,1659.488,400.755Z" fill="none" stroke="#364d57" stroke-miterlimit="10" stroke-width="2"/>
    </g>
  </g>
</svg>
