<svg xmlns="http://www.w3.org/2000/svg" width="57.049" height="57" viewBox="0 0 57.049 57">
  <g id="Group_95" data-name="Group 95" transform="translate(-1626.461 -558.343)">
    <path id="Path_54" data-name="Path 54" d="M1677.6,615.335H1632.3c-.092-.119-.232-.094-.355-.123a6.524,6.524,0,0,1-5.26-5.126,16.239,16.239,0,0,1-.122-4.546,1.559,1.559,0,0,1,1.307-1.487c.559-.1.551-.379.551-.8q-.01-12.186-.005-24.373c0-.185-.008-.371,0-.556a.924.924,0,0,1,.943-.956.906.906,0,0,1,.929.963c.015.444.005.89.005,1.335q0,11.824-.011,23.65c0,.509.131.675.646.65.889-.043,1.781-.021,2.671-.021q22.65-.011,45.3-.018c.93,0,.792.045.793-.816q0-9.237,0-18.474,0-6.873,0-13.745a2.94,2.94,0,0,0-1.109-2.438,3.353,3.353,0,0,0-2.2-.62c-2.838,0-5.676.007-8.514-.012-.436,0-.526.152-.519.549.022,1.261.032,2.523,0,3.784a.785.785,0,0,0,.563.855,15.179,15.179,0,0,1-11.4,28.114,3.935,3.935,0,0,0-1.733-.244,48.721,48.721,0,0,1-14.551-.807,14.571,14.571,0,0,1-5.547-2.19,3.388,3.388,0,0,1-1.532-2.965c.033-8.847.014-17.7.028-26.543,0-.453-.093-.584-.561-.491a2.873,2.873,0,0,0-2.316,2.7c-.038.52-.221.9-.766,1.009-.663.129-1.136-.344-1.117-1.094a4.784,4.784,0,0,1,3.672-4.429c.35-.086.855.065,1.022-.262a2.229,2.229,0,0,0,.057-1.147,3.23,3.23,0,0,1,1.492-3.092,8.37,8.37,0,0,1,1.283-.776,25.128,25.128,0,0,1,8.148-2.082,50.892,50.892,0,0,1,14.523.32,19.792,19.792,0,0,1,6.488,2.047c1.506.843,2.481,2,2.247,3.856a.82.82,0,0,0,0,.111c0,.9,0,.9.87.9q4.146,0,8.292,0a5.968,5.968,0,0,1,1.436.145,4.753,4.753,0,0,1,3.649,4.833q.006,16.137,0,32.275c0,.167,0,.334,0,.5,0,.148.054.253.216.267a2.2,2.2,0,0,1,1.685,1.353v4.452c-.191.11-.16.322-.206.488a6.6,6.6,0,0,1-5.054,4.921C1678.03,615.234,1677.794,615.193,1677.6,615.335Zm-15.955-15.209a13.285,13.285,0,1,0-13.3-13.307A13.279,13.279,0,0,0,1661.648,600.126Zm-6.767,13.313h15.246c2.207,0,4.414.012,6.621,0a4.741,4.741,0,0,0,4.812-4.333c.085-.864,0-1.743.044-2.613.022-.477-.1-.635-.608-.633q-7.456.02-14.912-.016c-.463,0-.665.084-.632.6a3.9,3.9,0,0,1-4.164,4.154c-4.209-.079-8.42-.018-12.631-.023a3.78,3.78,0,0,1-4.095-4.085c0-.5-.129-.654-.644-.652-4.3.021-8.606.012-12.909.011-.723,0-1.447.006-2.17-.015-.334-.01-.459.1-.448.443.022.667.006,1.336.007,2a4.785,4.785,0,0,0,5.171,5.16Zm-19.81-42.53c0,1.094.018,2.188-.008,3.282a1.378,1.378,0,0,0,.625,1.223,8.827,8.827,0,0,0,2.439,1.192,36.629,36.629,0,0,0,10.339,1.644,1.059,1.059,0,0,0,1.013-.507,14.106,14.106,0,0,1,5.444-4.559A15.15,15.15,0,0,1,1665,572.017c.353.078.456-.014.453-.371-.015-1.446-.01-2.893,0-4.339,0-.312-.027-.476-.389-.251a11.842,11.842,0,0,1-2.877,1.171,37.745,37.745,0,0,1-9.867,1.471,49.767,49.767,0,0,1-11.726-.876,28.531,28.531,0,0,1-5.059-1.654c-.416-.173-.466-.006-.463.347C1635.077,568.646,1635.071,569.777,1635.071,570.909Zm16.108-3.075a41.744,41.744,0,0,0,7.52-.7,16.728,16.728,0,0,0,5.711-1.923c1.363-.825,1.347-1.5-.006-2.346a12.956,12.956,0,0,0-3.495-1.405,36.948,36.948,0,0,0-8.185-1.15,45.835,45.835,0,0,0-12.326.945,12.387,12.387,0,0,0-4.67,1.849c-.9.654-.89,1.221.006,1.883a10.844,10.844,0,0,0,3.651,1.583A43.372,43.372,0,0,0,1651.179,567.834Zm1.343,31.217c-.644-.583-1.235-1.059-1.756-1.6a15.2,15.2,0,0,1-3.739-6.486.532.532,0,0,0-.54-.44c-1.326-.134-2.655-.265-3.972-.465a21.755,21.755,0,0,1-6.862-1.986c-.573-.3-.581-.292-.581.382,0,2.04.062,4.084-.026,6.12a2.111,2.111,0,0,0,1.3,2.153,18.518,18.518,0,0,0,5.161,1.691,44.29,44.29,0,0,0,7.124.749A18.294,18.294,0,0,0,1652.522,599.051Zm-6.775-10.544c.776.024.775.024.692-.763-.014-.128-.014-.259-.016-.388a14.973,14.973,0,0,1,1.324-6.641c.171-.373.192-.523-.316-.562-1.439-.109-2.879-.245-4.307-.448a22.3,22.3,0,0,1-7.6-2.169c-.43-.232-.458-.019-.457.323,0,2.075.07,4.154-.025,6.224a2.114,2.114,0,0,0,1.309,2.2c.214.108.425.227.645.322A27.562,27.562,0,0,0,1645.747,588.507Zm9.283,17.36h-4.224c-1.278,0-2.557.011-3.835-.006-.375-.005-.514.1-.518.5-.014,1.552.7,2.3,2.246,2.3q6.337,0,12.674,0a1.953,1.953,0,0,0,2.189-2.2c.011-.516-.174-.608-.639-.605C1660.293,605.877,1657.662,605.867,1655.03,605.867Z" fill="#364d57"/>
    <path id="Path_55" data-name="Path 55" d="M1677.6,615.335c.191-.142.427-.1.64-.156a6.6,6.6,0,0,0,5.054-4.921c.046-.166.015-.378.206-.488,0,1.744-.007,3.488.007,5.231,0,.279-.063.344-.341.342C1681.314,615.328,1679.458,615.335,1677.6,615.335Z" fill="#e6ecfb"/>
    <path id="Path_56" data-name="Path 56" d="M1661.648,600.126a13.285,13.285,0,1,1,13.279-13.26A13.3,13.3,0,0,1,1661.648,600.126Zm6.451-13.738.162.1c.011.107.03.214.031.322a6.641,6.641,0,1,1-5.247-6.468,6.925,6.925,0,0,1,2.744,1.288.942.942,0,0,0,1.093.1.882.882,0,0,0,.477-.823,1.1,1.1,0,0,0-.524-.867,8.557,8.557,0,1,0,3.23,8.266c.11-.605.135-1.226.2-1.837.066.005.09,0,.1.008.321.307.639.618.962.924a.984.984,0,0,0,1.433.088.927.927,0,0,0-.089-1.421q-1.3-1.329-2.635-2.636a.953.953,0,0,0-1.547-.011q-1.329,1.306-2.637,2.635a.953.953,0,0,0-.11,1.425.97.97,0,0,0,1.431-.075C1667.5,587.086,1667.791,586.729,1668.1,586.388Z" fill="#e7ecfb"/>
    <path id="Path_57" data-name="Path 57" d="M1654.881,613.439h-21.312a4.785,4.785,0,0,1-5.171-5.16c0-.667.015-1.336-.007-2-.011-.344.114-.453.448-.443.723.021,1.447.015,2.17.015,4.3,0,8.606.01,12.909-.011.515,0,.646.148.644.652a3.78,3.78,0,0,0,4.095,4.085c4.211.005,8.422-.056,12.631.023a3.9,3.9,0,0,0,4.164-4.154c-.033-.519.169-.6.632-.6q7.457.031,14.912.016c.507,0,.63.156.608.633-.042.87.041,1.749-.044,2.613a4.741,4.741,0,0,1-4.812,4.333c-2.207.016-4.414,0-6.621,0Zm-14.6-3.8c.464,0,.928.018,1.39-.005a.954.954,0,0,0,.981-.987.921.921,0,0,0-1-.9c-.907-.015-1.816-.013-2.723,0a.94.94,0,0,0-1.012.889.954.954,0,0,0,.973,1C1639.349,609.662,1639.813,609.642,1640.276,609.643Zm-5.235-1.889a.944.944,0,0,0-.933.962.98.98,0,0,0,.934.92.941.941,0,0,0,.946-.949A.906.906,0,0,0,1635.041,607.754Zm-3.779,1.883a.951.951,0,0,0,.93-.968.914.914,0,0,0-.967-.915.927.927,0,0,0-.91.924A.967.967,0,0,0,1631.262,609.637Z" fill="#e7ecfb"/>
    <path id="Path_58" data-name="Path 58" d="M1635.071,570.909c0-1.132.006-2.263,0-3.394,0-.353.047-.52.463-.347a28.531,28.531,0,0,0,5.059,1.654,49.767,49.767,0,0,0,11.726.876,37.745,37.745,0,0,0,9.867-1.471,11.842,11.842,0,0,0,2.877-1.171c.362-.225.39-.061.389.251-.007,1.446-.012,2.893,0,4.339,0,.357-.1.449-.453.371a15.15,15.15,0,0,0-10.075,1.167,14.106,14.106,0,0,0-5.444,4.559,1.059,1.059,0,0,1-1.013.507,36.629,36.629,0,0,1-10.339-1.644,8.827,8.827,0,0,1-2.439-1.192,1.378,1.378,0,0,1-.625-1.223C1635.089,573.1,1635.071,572,1635.071,570.909Z" fill="#e7ecfb"/>
    <path id="Path_59" data-name="Path 59" d="M1651.179,567.834a43.372,43.372,0,0,1-11.794-1.262,10.844,10.844,0,0,1-3.651-1.583c-.9-.662-.905-1.229-.006-1.883a12.387,12.387,0,0,1,4.67-1.849,45.835,45.835,0,0,1,12.326-.945,36.948,36.948,0,0,1,8.185,1.15,12.956,12.956,0,0,1,3.495,1.405c1.353.846,1.369,1.521.006,2.346a16.728,16.728,0,0,1-5.711,1.923A41.744,41.744,0,0,1,1651.179,567.834Z" fill="#e7ecfb"/>
    <path id="Path_60" data-name="Path 60" d="M1652.522,599.051a18.294,18.294,0,0,1-3.889.116,44.29,44.29,0,0,1-7.124-.749,18.518,18.518,0,0,1-5.161-1.691,2.111,2.111,0,0,1-1.3-2.153c.088-2.036.024-4.08.026-6.12,0-.674.008-.679.581-.382a21.755,21.755,0,0,0,6.862,1.986c1.317.2,2.646.331,3.972.465a.532.532,0,0,1,.54.44,15.2,15.2,0,0,0,3.739,6.486C1651.287,597.992,1651.878,598.468,1652.522,599.051Z" fill="#e7ecfb"/>
    <path id="Path_61" data-name="Path 61" d="M1645.747,588.507a27.562,27.562,0,0,1-8.749-1.9c-.22-.1-.431-.214-.645-.322a2.114,2.114,0,0,1-1.309-2.2c.1-2.07.029-4.149.025-6.224,0-.342.027-.555.457-.323a22.3,22.3,0,0,0,7.6,2.169c1.428.2,2.868.339,4.307.448.508.039.487.189.316.562a14.973,14.973,0,0,0-1.324,6.641c0,.129,0,.26.016.388C1646.522,588.531,1646.523,588.531,1645.747,588.507Z" fill="#e7ecfb"/>
    <path id="Path_62" data-name="Path 62" d="M1655.03,605.867c2.632,0,5.263.01,7.893-.009.465,0,.65.089.639.605a1.953,1.953,0,0,1-2.189,2.2q-6.338,0-12.674,0c-1.549,0-2.26-.748-2.246-2.3,0-.4.143-.5.518-.5,1.278.017,2.557.006,3.835.006Z" fill="#e6ecfb"/>
    <path id="Path_63" data-name="Path 63" d="M1629.34,575.427a.952.952,0,0,1-.921-.978.937.937,0,0,1,.956-.88.914.914,0,0,1,.913.97A.934.934,0,0,1,1629.34,575.427Z" fill="#364d57"/>
    <path id="Path_64" data-name="Path 64" d="M1668.1,586.388c-.308.341-.6.7-.927,1.021a.97.97,0,0,1-1.431.075.953.953,0,0,1,.11-1.425q1.31-1.326,2.637-2.635a.953.953,0,0,1,1.547.011q1.329,1.308,2.635,2.636a.927.927,0,0,1,.089,1.421.984.984,0,0,1-1.433-.088c-.323-.306-.641-.617-.962-.924-.009-.009-.033,0-.1-.008-.065.611-.09,1.232-.2,1.837a8.537,8.537,0,1,1-3.23-8.266,1.1,1.1,0,0,1,.524.867.882.882,0,0,1-.477.823.942.942,0,0,1-1.093-.1,6.925,6.925,0,0,0-2.744-1.288,6.642,6.642,0,1,0,5.247,6.468c0-.108-.02-.215-.031-.322Z" fill="#364d57"/>
    <path id="Path_65" data-name="Path 65" d="M1640.276,609.642c-.463,0-.927.02-1.389-.005a.954.954,0,0,1-.973-1,.94.94,0,0,1,1.012-.889c.907-.012,1.816-.014,2.723,0a.921.921,0,0,1,1,.9.954.954,0,0,1-.981.987C1641.2,609.661,1640.74,609.643,1640.276,609.642Z" fill="#364d57"/>
    <path id="Path_66" data-name="Path 66" d="M1635.041,607.754a.906.906,0,0,1,.947.933.941.941,0,0,1-.946.949.98.98,0,0,1-.934-.92A.944.944,0,0,1,1635.041,607.754Z" fill="#364d57"/>
    <path id="Path_67" data-name="Path 67" d="M1631.262,609.637a.967.967,0,0,1-.947-.959.927.927,0,0,1,.91-.924.914.914,0,0,1,.967.915A.951.951,0,0,1,1631.262,609.637Z" fill="#364d57"/>
  </g>
</svg>
