<svg xmlns="http://www.w3.org/2000/svg" width="57.947" height="58" viewBox="0 0 57.947 58">
  <g id="Group_97" data-name="Group 97" transform="translate(-1624.533 -730.343)">
    <path id="Path_75" data-name="Path 75" d="M1655.794,788.343h-4.644c-.055-.136-.179-.109-.287-.122-.691-.085-1.388-.14-2.073-.26a29.086,29.086,0,0,1-24.045-25.212,2.99,2.99,0,0,0-.212-1.25v-4.3c.126-.063.109-.185.119-.294a28.965,28.965,0,0,1,35.194-25.846,28.888,28.888,0,0,1,22.439,31.667,28.256,28.256,0,0,1-10.969,19.489,27.96,27.96,0,0,1-13.552,5.813A8.223,8.223,0,0,0,1655.794,788.343Zm10.529-52.549c-.111-.07-.218-.147-.333-.209a25.859,25.859,0,0,0-17.833-2.571,26.672,26.672,0,0,0-21.379,23.794,26.332,26.332,0,0,0,7.808,21.621c.895.916.909.9,2,.291.1-.055.2-.106.3-.161q3.8-2.072,7.6-4.142a2.558,2.558,0,0,0,1.452-2.43c-.006-.793-.011-1.586,0-2.379a1.24,1.24,0,0,0-.244-.787,19.459,19.459,0,0,1-2.9-5.979,1.651,1.651,0,0,0-.433-.712,3.523,3.523,0,0,1-1.076-2.481c-.018-1.358-.012-2.717-.006-4.076a3.376,3.376,0,0,1,.674-2.005,1.239,1.239,0,0,0,.243-.787c-.013-1.7,0-3.4-.02-5.1a8.13,8.13,0,0,1,5.031-7.72,16.869,16.869,0,0,1,11.853-.312,8.142,8.142,0,0,1,5.81,7.983c-.013,1.68-.006,3.36-.021,5.04a1.482,1.482,0,0,0,.278.946,3.231,3.231,0,0,1,.637,1.9c.009,1.358.028,2.718,0,4.076a3.593,3.593,0,0,1-1.78,3.1,1.329,1.329,0,0,0-.583.719,12.386,12.386,0,0,1-1.845,3.741,6.542,6.542,0,0,0-1.387,4.922,2.678,2.678,0,0,0,1.526,2.441q4.456,2.223,8.91,4.45c.936.608.751.5,1.437-.151a25.144,25.144,0,0,0,4.188-5.1,26.908,26.908,0,0,0-8.669-37.281A3.815,3.815,0,0,0,1666.323,735.794Zm-3.628,14.624h.011c0-.83-.04-1.663.008-2.49a6.074,6.074,0,0,0-3.746-6.026,14.95,14.95,0,0,0-9.169-.586c-3.389.757-5.633,2.908-5.478,6.93.064,1.64.006,3.283.009,4.925a1.89,1.89,0,0,1-.484,1.4,1.968,1.968,0,0,0-.492,1.409c-.01,1.076-.014,2.151,0,3.227a1.826,1.826,0,0,0,.613,1.523,2.455,2.455,0,0,1,.832,1.373,14.783,14.783,0,0,0,2.32,5,4.294,4.294,0,0,1,.957,3.145,15.788,15.788,0,0,0-.009,1.584,4.728,4.728,0,0,1-2.68,4.5c-2.517,1.334-5.006,2.719-7.507,4.083-.545.3-.547.351-.06.7.689.5,1.4.965,2.131,1.392a26.548,26.548,0,0,0,17.421,3.412,25.99,25.99,0,0,0,11.655-4.655c.587-.419.591-.417-.084-.754q-4.126-2.059-8.256-4.117a4.467,4.467,0,0,1-2.583-3.425c-.122-.75-.008-1.509-.069-2.259a4.138,4.138,0,0,1,1.134-3.73.209.209,0,0,0,.032-.046,19.237,19.237,0,0,0,2.355-4.69,1.547,1.547,0,0,1,.846-1.135,1.97,1.97,0,0,0,1.284-2.055q.006-1.472,0-2.944a2.279,2.279,0,0,0-.564-1.614,1.742,1.742,0,0,1-.432-1.252C1662.7,752.3,1662.695,751.362,1662.695,750.418Z" fill="#364d57"/>
    <path id="Path_76" data-name="Path 76" d="M1670.613,778.974q-4.455-2.226-8.91-4.45a2.678,2.678,0,0,1-1.526-2.441,6.542,6.542,0,0,1,1.387-4.922,12.386,12.386,0,0,0,1.845-3.741,1.329,1.329,0,0,1,.583-.719,3.593,3.593,0,0,0,1.78-3.1c.026-1.358.007-2.718,0-4.076a3.231,3.231,0,0,0-.637-1.9,1.482,1.482,0,0,1-.278-.946c.015-1.68.008-3.36.021-5.04a8.142,8.142,0,0,0-5.81-7.983,16.869,16.869,0,0,0-11.853.312,8.13,8.13,0,0,0-5.031,7.72c.018,1.7.007,3.4.02,5.1a1.239,1.239,0,0,1-.243.787,3.376,3.376,0,0,0-.674,2.005c-.006,1.359-.012,2.718.006,4.076a3.523,3.523,0,0,0,1.076,2.481,1.651,1.651,0,0,1,.433.712,19.459,19.459,0,0,0,2.9,5.979,1.24,1.24,0,0,1,.244.787c-.015.793-.01,1.586,0,2.379a2.558,2.558,0,0,1-1.452,2.43q-3.808,2.061-7.6,4.142c-.1.055-.2.106-.3.161-1.087.611-1.1.625-2-.291a26.332,26.332,0,0,1-7.808-21.621,26.672,26.672,0,0,1,21.379-23.794,25.859,25.859,0,0,1,17.833,2.571c.115.062.222.139.333.209.053.232.264.309.428.427a26.017,26.017,0,0,1,3.23,2.74,28.04,28.04,0,0,1,5.931,8.747,29.2,29.2,0,0,1,2.166,15.318,28.328,28.328,0,0,1-4.274,11.933A19.81,19.81,0,0,1,1670.613,778.974Z" fill="#e7ecfb"/>
    <path id="Path_77" data-name="Path 77" d="M1662.695,750.418c0,.944.008,1.887,0,2.831a1.742,1.742,0,0,0,.432,1.252,2.279,2.279,0,0,1,.564,1.614q.006,1.473,0,2.944a1.97,1.97,0,0,1-1.284,2.055,1.547,1.547,0,0,0-.846,1.135,19.237,19.237,0,0,1-2.355,4.69.209.209,0,0,1-.032.046,4.138,4.138,0,0,0-1.134,3.73c.061.75-.053,1.509.069,2.259a4.467,4.467,0,0,0,2.583,3.425q4.126,2.063,8.256,4.117c.675.337.671.335.084.754a25.99,25.99,0,0,1-11.655,4.655,26.548,26.548,0,0,1-17.421-3.412c-.736-.427-1.442-.9-2.131-1.392-.487-.351-.485-.4.06-.7,2.5-1.364,4.99-2.749,7.507-4.083a4.728,4.728,0,0,0,2.68-4.5,15.788,15.788,0,0,1,.009-1.584,4.294,4.294,0,0,0-.957-3.145,14.783,14.783,0,0,1-2.32-5,2.455,2.455,0,0,0-.832-1.373,1.826,1.826,0,0,1-.613-1.523c-.016-1.076-.012-2.151,0-3.227a1.968,1.968,0,0,1,.492-1.409,1.89,1.89,0,0,0,.484-1.4c0-1.642.055-3.285-.009-4.925-.155-4.022,2.089-6.173,5.478-6.93a14.95,14.95,0,0,1,9.169.586,6.074,6.074,0,0,1,3.746,6.026c-.048.827-.008,1.66-.008,2.49Z" fill="#e7ecfb"/>
  </g>
</svg>
